<mxfile host="app.diagrams.net" modified="2021-08-15T06:26:42.453Z" agent="5.0 (Macintosh; Intel Mac OS X 10_14_3) AppleWebKit/537.36 (KHTML, like Gecko) Chrome/92.0.4515.131 Safari/537.36" etag="BgI5UUgvrb7JaFbLKdjI" version="14.9.6" type="github">
  <diagram id="3228e29e-7158-1315-38df-8450db1d8a1d" name="Page-1">
    <mxGraphModel dx="1892" dy="386" grid="0" gridSize="10" guides="1" tooltips="1" connect="1" arrows="1" fold="1" page="1" pageScale="1" pageWidth="650" pageHeight="600" background="#EFF1F3" math="0" shadow="0">
      <root>
        <mxCell id="0" />
        <mxCell id="1" parent="0" />
        <mxCell id="_KJd5dzx4qh3lxpyMWcO-2" value="" style="fontColor=#0066CC;verticalAlign=top;verticalLabelPosition=bottom;labelPosition=center;align=center;html=1;outlineConnect=0;gradientColor=none;gradientDirection=north;strokeWidth=2;shape=mxgraph.networks.pc;fillColor=#67AB9F;fontSize=30;" parent="1" vertex="1">
          <mxGeometry x="148.27" y="668" width="74.65" height="54" as="geometry" />
        </mxCell>
        <mxCell id="T-5VQnCJckOgUX1Wp16H-28" value="客户端" style="text;html=1;strokeColor=none;fillColor=none;align=center;verticalAlign=middle;whiteSpace=wrap;rounded=0;fontSize=22;" parent="1" vertex="1">
          <mxGeometry x="96.08999999999999" y="736" width="179" height="20" as="geometry" />
        </mxCell>
        <mxCell id="aH1-eks404bDhsACtXEq-2" value="" style="fontColor=#0066CC;verticalAlign=top;verticalLabelPosition=bottom;labelPosition=center;align=center;html=1;outlineConnect=0;gradientColor=none;gradientDirection=north;strokeWidth=2;shape=mxgraph.networks.server;fillColor=#4A919B;" parent="1" vertex="1">
          <mxGeometry x="480.27" y="658" width="51.5" height="64" as="geometry" />
        </mxCell>
        <mxCell id="aH1-eks404bDhsACtXEq-3" value="服务端" style="text;html=1;strokeColor=none;fillColor=none;align=center;verticalAlign=middle;whiteSpace=wrap;rounded=0;fontSize=22;" parent="1" vertex="1">
          <mxGeometry x="419.27" y="736" width="179" height="20" as="geometry" />
        </mxCell>
        <mxCell id="aH1-eks404bDhsACtXEq-4" value="&lt;span style=&quot;font-size: 30px&quot;&gt;一直不发第三次挥手的情况&lt;/span&gt;" style="text;html=1;strokeColor=none;fillColor=none;align=center;verticalAlign=middle;whiteSpace=wrap;rounded=0;" parent="1" vertex="1">
          <mxGeometry x="443.5" y="614" width="395" height="28" as="geometry" />
        </mxCell>
        <mxCell id="aH1-eks404bDhsACtXEq-7" value="" style="endArrow=none;html=1;strokeWidth=5;" parent="1" edge="1">
          <mxGeometry width="50" height="50" relative="1" as="geometry">
            <mxPoint x="197" y="1177" as="sourcePoint" />
            <mxPoint x="197" y="799" as="targetPoint" />
          </mxGeometry>
        </mxCell>
        <mxCell id="aH1-eks404bDhsACtXEq-10" value="" style="endArrow=classic;html=1;strokeWidth=5;fontSize=20;" parent="1" edge="1">
          <mxGeometry width="50" height="50" relative="1" as="geometry">
            <mxPoint x="217.5" y="832" as="sourcePoint" />
            <mxPoint x="473.5" y="847" as="targetPoint" />
          </mxGeometry>
        </mxCell>
        <mxCell id="aH1-eks404bDhsACtXEq-11" value="FIN=1" style="text;html=1;strokeColor=none;fillColor=none;align=center;verticalAlign=middle;whiteSpace=wrap;rounded=0;fontSize=20;" parent="1" vertex="1">
          <mxGeometry x="287.5" y="805" width="92" height="21" as="geometry" />
        </mxCell>
        <mxCell id="aH1-eks404bDhsACtXEq-12" value="" style="endArrow=none;html=1;strokeWidth=5;startArrow=classic;startFill=1;endFill=0;" parent="1" edge="1">
          <mxGeometry width="50" height="50" relative="1" as="geometry">
            <mxPoint x="208.5" y="930" as="sourcePoint" />
            <mxPoint x="473.5" y="861" as="targetPoint" />
          </mxGeometry>
        </mxCell>
        <mxCell id="aH1-eks404bDhsACtXEq-16" value="FIN-WAIT-1" style="rounded=1;whiteSpace=wrap;html=1;strokeColor=#000000;fillColor=none;dashed=1;strokeWidth=3;" parent="1" vertex="1">
          <mxGeometry x="93.5" y="831" width="88" height="95" as="geometry" />
        </mxCell>
        <mxCell id="aH1-eks404bDhsACtXEq-17" value="&lt;span style=&quot;font-family: &amp;quot;open sans&amp;quot; , &amp;quot;clear sans&amp;quot; , &amp;quot;helvetica neue&amp;quot; , &amp;quot;helvetica&amp;quot; , &amp;quot;arial&amp;quot; , sans-serif&quot;&gt;&lt;font style=&quot;font-size: 12px&quot;&gt;ESTABLISHED&lt;/font&gt;&lt;/span&gt;" style="rounded=1;whiteSpace=wrap;html=1;dashed=1;strokeWidth=3;strokeColor=none;fillColor=#535E80;fontColor=#FFFFFF;" parent="1" vertex="1">
          <mxGeometry x="500.5" y="793" width="89" height="56" as="geometry" />
        </mxCell>
        <mxCell id="aH1-eks404bDhsACtXEq-18" value="&lt;span&gt;CLOSE-WAIT&lt;/span&gt;" style="rounded=1;whiteSpace=wrap;html=1;strokeColor=#000000;dashed=1;strokeWidth=3;fillColor=none;" parent="1" vertex="1">
          <mxGeometry x="500.5" y="861" width="89" height="104" as="geometry" />
        </mxCell>
        <mxCell id="aH1-eks404bDhsACtXEq-19" value="LAST-ACK" style="rounded=1;whiteSpace=wrap;html=1;strokeColor=#000000;fillColor=none;dashed=1;strokeWidth=3;opacity=30;" parent="1" vertex="1">
          <mxGeometry x="500.5" y="979" width="91" height="97" as="geometry" />
        </mxCell>
        <mxCell id="aH1-eks404bDhsACtXEq-21" value="FIN-WAIT-2" style="rounded=1;whiteSpace=wrap;html=1;strokeColor=#000000;dashed=1;strokeWidth=3;fillColor=none;" parent="1" vertex="1">
          <mxGeometry x="93.32" y="940" width="88" height="103" as="geometry" />
        </mxCell>
        <mxCell id="aH1-eks404bDhsACtXEq-22" value="ACK=1" style="text;html=1;strokeColor=none;fillColor=none;align=center;verticalAlign=middle;whiteSpace=wrap;rounded=0;fontSize=20;rotation=-15;" parent="1" vertex="1">
          <mxGeometry x="185.09" y="869.9200000000001" width="269" height="32" as="geometry" />
        </mxCell>
        <mxCell id="YXoqQ_mGJv7HDvLP6CB5-1" value="" style="endArrow=none;html=1;strokeWidth=5;" parent="1" edge="1">
          <mxGeometry width="50" height="50" relative="1" as="geometry">
            <mxPoint x="483" y="1179" as="sourcePoint" />
            <mxPoint x="482.5000000000001" y="799" as="targetPoint" />
          </mxGeometry>
        </mxCell>
        <mxCell id="CZwPZS3a3ZRwMsVz8uld-1" value="" style="endArrow=none;html=1;strokeWidth=3;startArrow=classic;startFill=1;endFill=0;dashed=1;opacity=30;" parent="1" edge="1">
          <mxGeometry width="50" height="50" relative="1" as="geometry">
            <mxPoint x="260" y="1033" as="sourcePoint" />
            <mxPoint x="474.5" y="978" as="targetPoint" />
          </mxGeometry>
        </mxCell>
        <mxCell id="CZwPZS3a3ZRwMsVz8uld-3" value="FIN=1, ACK=1" style="text;html=1;strokeColor=none;fillColor=none;align=center;verticalAlign=middle;whiteSpace=wrap;rounded=0;fontSize=20;rotation=-15;" parent="1" vertex="1">
          <mxGeometry x="201" y="976" width="269" height="32" as="geometry" />
        </mxCell>
        <mxCell id="CZwPZS3a3ZRwMsVz8uld-5" value="&lt;font color=&quot;#ffffff&quot;&gt;CLOSED&lt;/font&gt;" style="rounded=1;whiteSpace=wrap;html=1;strokeWidth=3;strokeColor=#535E80;fillColor=#535E80;" parent="1" vertex="1">
          <mxGeometry x="93.32" y="1064" width="88" height="47" as="geometry" />
        </mxCell>
        <mxCell id="CZwPZS3a3ZRwMsVz8uld-6" value="&lt;font color=&quot;#ffffff&quot;&gt;CLOSED&lt;/font&gt;" style="rounded=1;whiteSpace=wrap;html=1;strokeWidth=3;strokeColor=#535E80;fillColor=#535E80;opacity=30;" parent="1" vertex="1">
          <mxGeometry x="501.5" y="1087" width="89" height="47" as="geometry" />
        </mxCell>
        <mxCell id="CZwPZS3a3ZRwMsVz8uld-7" value="" style="points=[[0.25,0.25,0],[0.5,0,0],[0.75,0.25,0],[1,0.5,0],[0.75,0.75,0],[0.5,1,0],[0.25,0.75,0],[0,0.5,0]];shape=mxgraph.bpmn.gateway2;html=1;verticalLabelPosition=bottom;labelBackgroundColor=#ffffff;verticalAlign=top;align=center;perimeter=rhombusPerimeter;outlineConnect=0;outline=standard;symbol=timer;fillColor=#535E80;strokeColor=#FFFFFF;" parent="1" vertex="1">
          <mxGeometry x="21" y="965" width="63" height="63" as="geometry" />
        </mxCell>
        <mxCell id="CZwPZS3a3ZRwMsVz8uld-8" value="2MSL" style="text;html=1;strokeColor=none;fillColor=none;align=center;verticalAlign=middle;whiteSpace=wrap;rounded=0;" parent="1" vertex="1">
          <mxGeometry x="32.5" y="1032" width="40" height="20" as="geometry" />
        </mxCell>
        <mxCell id="620c4s5pLBTuJ2dwkKwi-3" value="&lt;span style=&quot;font-family: &amp;#34;open sans&amp;#34; , &amp;#34;clear sans&amp;#34; , &amp;#34;helvetica neue&amp;#34; , &amp;#34;helvetica&amp;#34; , &amp;#34;arial&amp;#34; , sans-serif&quot;&gt;&lt;font&gt;&lt;font style=&quot;font-size: 17px&quot;&gt;close( )&lt;/font&gt;&lt;br&gt;&lt;/font&gt;&lt;/span&gt;" style="rounded=1;whiteSpace=wrap;html=1;dashed=1;strokeWidth=3;strokeColor=none;fillColor=#FDD276;" parent="1" vertex="1">
          <mxGeometry x="96.09" y="770" width="89" height="55" as="geometry" />
        </mxCell>
        <mxCell id="1dWW6wGH6WIk6x0DDNvy-1" value="&lt;font style=&quot;font-size: 72px&quot; color=&quot;#ea6b66&quot;&gt;×&lt;/font&gt;" style="text;html=1;strokeColor=none;fillColor=none;align=center;verticalAlign=middle;whiteSpace=wrap;rounded=0;opacity=30;" parent="1" vertex="1">
          <mxGeometry x="247.5" y="1015" width="40" height="20" as="geometry" />
        </mxCell>
        <mxCell id="_vr0naVQsVy4s_z6ZWFj-1" value="&lt;font style=&quot;font-size: 16px&quot;&gt;1.第三次握手&lt;br&gt;没有发出&lt;/font&gt;" style="text;html=1;strokeColor=none;fillColor=none;align=center;verticalAlign=middle;whiteSpace=wrap;rounded=0;fontSize=20;rotation=0;" vertex="1" parent="1">
          <mxGeometry x="345" y="1026" width="149" height="32" as="geometry" />
        </mxCell>
        <mxCell id="_vr0naVQsVy4s_z6ZWFj-2" value="&lt;font style=&quot;font-size: 16px&quot;&gt;2.FIN-WAIT-2等待&lt;br&gt;超时，变成 CLOSED&lt;/font&gt;" style="text;html=1;strokeColor=none;fillColor=none;align=center;verticalAlign=middle;whiteSpace=wrap;rounded=0;fontSize=20;rotation=0;" vertex="1" parent="1">
          <mxGeometry x="11" y="1113" width="185" height="62" as="geometry" />
        </mxCell>
        <mxCell id="_vr0naVQsVy4s_z6ZWFj-3" value="" style="shape=flexArrow;endArrow=classic;html=1;fontColor=#FFFFFF;gradientColor=none;endWidth=24.381720430107528;endSize=9.583333333333334;width=27.5;strokeColor=none;fillColor=#4A919B;" edge="1" parent="1">
          <mxGeometry width="50" height="50" relative="1" as="geometry">
            <mxPoint x="1040.96" y="937" as="sourcePoint" />
            <mxPoint x="936" y="970" as="targetPoint" />
          </mxGeometry>
        </mxCell>
        <mxCell id="_vr0naVQsVy4s_z6ZWFj-4" value="" style="fontColor=#0066CC;verticalAlign=top;verticalLabelPosition=bottom;labelPosition=center;align=center;html=1;outlineConnect=0;gradientColor=none;gradientDirection=north;strokeWidth=2;shape=mxgraph.networks.pc;fillColor=#67AB9F;fontSize=30;" vertex="1" parent="1">
          <mxGeometry x="805.27" y="678" width="74.65" height="54" as="geometry" />
        </mxCell>
        <mxCell id="_vr0naVQsVy4s_z6ZWFj-5" value="客户端" style="text;html=1;strokeColor=none;fillColor=none;align=center;verticalAlign=middle;whiteSpace=wrap;rounded=0;fontSize=22;" vertex="1" parent="1">
          <mxGeometry x="753.09" y="746" width="179" height="20" as="geometry" />
        </mxCell>
        <mxCell id="_vr0naVQsVy4s_z6ZWFj-6" value="" style="fontColor=#0066CC;verticalAlign=top;verticalLabelPosition=bottom;labelPosition=center;align=center;html=1;outlineConnect=0;gradientColor=none;gradientDirection=north;strokeWidth=2;shape=mxgraph.networks.server;fillColor=#4A919B;" vertex="1" parent="1">
          <mxGeometry x="1137.27" y="668" width="51.5" height="64" as="geometry" />
        </mxCell>
        <mxCell id="_vr0naVQsVy4s_z6ZWFj-7" value="服务端" style="text;html=1;strokeColor=none;fillColor=none;align=center;verticalAlign=middle;whiteSpace=wrap;rounded=0;fontSize=22;" vertex="1" parent="1">
          <mxGeometry x="1076.27" y="746" width="179" height="20" as="geometry" />
        </mxCell>
        <mxCell id="_vr0naVQsVy4s_z6ZWFj-8" value="" style="endArrow=none;html=1;strokeWidth=5;" edge="1" parent="1">
          <mxGeometry width="50" height="50" relative="1" as="geometry">
            <mxPoint x="854" y="1187" as="sourcePoint" />
            <mxPoint x="854" y="809" as="targetPoint" />
          </mxGeometry>
        </mxCell>
        <mxCell id="_vr0naVQsVy4s_z6ZWFj-9" value="" style="endArrow=classic;html=1;strokeWidth=5;fontSize=20;" edge="1" parent="1">
          <mxGeometry width="50" height="50" relative="1" as="geometry">
            <mxPoint x="874.5" y="842" as="sourcePoint" />
            <mxPoint x="1130.5" y="857" as="targetPoint" />
          </mxGeometry>
        </mxCell>
        <mxCell id="_vr0naVQsVy4s_z6ZWFj-10" value="FIN=1" style="text;html=1;strokeColor=none;fillColor=none;align=center;verticalAlign=middle;whiteSpace=wrap;rounded=0;fontSize=20;" vertex="1" parent="1">
          <mxGeometry x="944.5" y="815" width="92" height="21" as="geometry" />
        </mxCell>
        <mxCell id="_vr0naVQsVy4s_z6ZWFj-11" value="" style="endArrow=none;html=1;strokeWidth=5;startArrow=classic;startFill=1;endFill=0;" edge="1" parent="1">
          <mxGeometry width="50" height="50" relative="1" as="geometry">
            <mxPoint x="865.5" y="940" as="sourcePoint" />
            <mxPoint x="1130.5" y="871" as="targetPoint" />
          </mxGeometry>
        </mxCell>
        <mxCell id="_vr0naVQsVy4s_z6ZWFj-12" value="FIN-WAIT-1" style="rounded=1;whiteSpace=wrap;html=1;strokeColor=#000000;fillColor=none;dashed=1;strokeWidth=3;" vertex="1" parent="1">
          <mxGeometry x="750.5" y="841" width="88" height="95" as="geometry" />
        </mxCell>
        <mxCell id="_vr0naVQsVy4s_z6ZWFj-13" value="&lt;span style=&quot;font-family: &amp;quot;open sans&amp;quot; , &amp;quot;clear sans&amp;quot; , &amp;quot;helvetica neue&amp;quot; , &amp;quot;helvetica&amp;quot; , &amp;quot;arial&amp;quot; , sans-serif&quot;&gt;&lt;font style=&quot;font-size: 12px&quot;&gt;ESTABLISHED&lt;/font&gt;&lt;/span&gt;" style="rounded=1;whiteSpace=wrap;html=1;dashed=1;strokeWidth=3;strokeColor=none;fillColor=#535E80;fontColor=#FFFFFF;" vertex="1" parent="1">
          <mxGeometry x="1157.5" y="803" width="89" height="56" as="geometry" />
        </mxCell>
        <mxCell id="_vr0naVQsVy4s_z6ZWFj-14" value="&lt;span&gt;CLOSE-WAIT&lt;/span&gt;" style="rounded=1;whiteSpace=wrap;html=1;strokeColor=#000000;dashed=1;strokeWidth=3;fillColor=none;" vertex="1" parent="1">
          <mxGeometry x="1157.5" y="871" width="89" height="104" as="geometry" />
        </mxCell>
        <mxCell id="_vr0naVQsVy4s_z6ZWFj-15" value="LAST-ACK" style="rounded=1;whiteSpace=wrap;html=1;strokeColor=#000000;fillColor=none;dashed=1;strokeWidth=3;opacity=30;" vertex="1" parent="1">
          <mxGeometry x="1157.5" y="989" width="91" height="97" as="geometry" />
        </mxCell>
        <mxCell id="_vr0naVQsVy4s_z6ZWFj-16" value="FIN-WAIT-2" style="rounded=1;whiteSpace=wrap;html=1;strokeColor=#000000;dashed=1;strokeWidth=3;fillColor=none;" vertex="1" parent="1">
          <mxGeometry x="750.3199999999999" y="950" width="88" height="103" as="geometry" />
        </mxCell>
        <mxCell id="_vr0naVQsVy4s_z6ZWFj-17" value="ACK=1" style="text;html=1;strokeColor=none;fillColor=none;align=center;verticalAlign=middle;whiteSpace=wrap;rounded=0;fontSize=20;rotation=-15;" vertex="1" parent="1">
          <mxGeometry x="842.09" y="879.9200000000001" width="269" height="32" as="geometry" />
        </mxCell>
        <mxCell id="_vr0naVQsVy4s_z6ZWFj-18" value="" style="endArrow=none;html=1;strokeWidth=5;" edge="1" parent="1">
          <mxGeometry width="50" height="50" relative="1" as="geometry">
            <mxPoint x="1140" y="1189" as="sourcePoint" />
            <mxPoint x="1139.5" y="809" as="targetPoint" />
          </mxGeometry>
        </mxCell>
        <mxCell id="_vr0naVQsVy4s_z6ZWFj-19" value="" style="endArrow=none;html=1;strokeWidth=3;startArrow=classic;startFill=1;endFill=0;dashed=1;opacity=30;" edge="1" parent="1">
          <mxGeometry width="50" height="50" relative="1" as="geometry">
            <mxPoint x="917" y="1043" as="sourcePoint" />
            <mxPoint x="1131.5" y="988" as="targetPoint" />
          </mxGeometry>
        </mxCell>
        <mxCell id="_vr0naVQsVy4s_z6ZWFj-20" value="FIN=1, ACK=1" style="text;html=1;strokeColor=none;fillColor=none;align=center;verticalAlign=middle;whiteSpace=wrap;rounded=0;fontSize=20;rotation=-15;" vertex="1" parent="1">
          <mxGeometry x="858" y="986" width="269" height="32" as="geometry" />
        </mxCell>
        <mxCell id="_vr0naVQsVy4s_z6ZWFj-21" value="TIME_WAIT" style="rounded=1;whiteSpace=wrap;html=1;strokeColor=#000000;fillColor=none;dashed=1;strokeWidth=3;opacity=30;" vertex="1" parent="1">
          <mxGeometry x="750.3199999999999" y="1069" width="88" height="63" as="geometry" />
        </mxCell>
        <mxCell id="_vr0naVQsVy4s_z6ZWFj-22" value="&lt;font color=&quot;#ffffff&quot;&gt;CLOSED&lt;/font&gt;" style="rounded=1;whiteSpace=wrap;html=1;strokeWidth=3;strokeColor=#535E80;fillColor=#535E80;opacity=30;" vertex="1" parent="1">
          <mxGeometry x="750.3199999999999" y="1147" width="88" height="47" as="geometry" />
        </mxCell>
        <mxCell id="_vr0naVQsVy4s_z6ZWFj-23" value="&lt;font color=&quot;#ffffff&quot;&gt;CLOSED&lt;/font&gt;" style="rounded=1;whiteSpace=wrap;html=1;strokeWidth=3;strokeColor=#535E80;fillColor=#535E80;opacity=30;" vertex="1" parent="1">
          <mxGeometry x="1158.5" y="1097" width="89" height="47" as="geometry" />
        </mxCell>
        <mxCell id="_vr0naVQsVy4s_z6ZWFj-24" value="" style="points=[[0.25,0.25,0],[0.5,0,0],[0.75,0.25,0],[1,0.5,0],[0.75,0.75,0],[0.5,1,0],[0.25,0.75,0],[0,0.5,0]];shape=mxgraph.bpmn.gateway2;html=1;verticalLabelPosition=bottom;labelBackgroundColor=#ffffff;verticalAlign=top;align=center;perimeter=rhombusPerimeter;outlineConnect=0;outline=standard;symbol=timer;fillColor=#535E80;strokeColor=#FFFFFF;opacity=30;" vertex="1" parent="1">
          <mxGeometry x="680" y="1065" width="63" height="63" as="geometry" />
        </mxCell>
        <mxCell id="_vr0naVQsVy4s_z6ZWFj-25" value="2MSL" style="text;html=1;strokeColor=none;fillColor=none;align=center;verticalAlign=middle;whiteSpace=wrap;rounded=0;opacity=30;" vertex="1" parent="1">
          <mxGeometry x="691.5" y="1132" width="40" height="20" as="geometry" />
        </mxCell>
        <mxCell id="_vr0naVQsVy4s_z6ZWFj-26" value="&lt;span style=&quot;font-family: &amp;#34;open sans&amp;#34; , &amp;#34;clear sans&amp;#34; , &amp;#34;helvetica neue&amp;#34; , &amp;#34;helvetica&amp;#34; , &amp;#34;arial&amp;#34; , sans-serif&quot;&gt;&lt;font&gt;&lt;font style=&quot;font-size: 17px&quot;&gt;shutdown( )&lt;/font&gt;&lt;br&gt;&lt;/font&gt;&lt;/span&gt;" style="rounded=1;whiteSpace=wrap;html=1;dashed=1;strokeWidth=3;strokeColor=none;fillColor=#FDD276;" vertex="1" parent="1">
          <mxGeometry x="749.0500000000001" y="778" width="90.91" height="55" as="geometry" />
        </mxCell>
        <mxCell id="_vr0naVQsVy4s_z6ZWFj-27" value="&lt;font style=&quot;font-size: 18px&quot;&gt;数据传输&lt;/font&gt;" style="text;html=1;strokeColor=none;fillColor=none;align=center;verticalAlign=middle;whiteSpace=wrap;rounded=0;fontColor=#FFFFFF;rotation=-15;" vertex="1" parent="1">
          <mxGeometry x="950" y="943" width="79" height="20" as="geometry" />
        </mxCell>
        <mxCell id="_vr0naVQsVy4s_z6ZWFj-28" value="&lt;font style=&quot;font-size: 72px&quot; color=&quot;#ea6b66&quot;&gt;×&lt;/font&gt;" style="text;html=1;strokeColor=none;fillColor=none;align=center;verticalAlign=middle;whiteSpace=wrap;rounded=0;" vertex="1" parent="1">
          <mxGeometry x="904.5" y="1025" width="40" height="20" as="geometry" />
        </mxCell>
        <mxCell id="_vr0naVQsVy4s_z6ZWFj-30" value="&lt;font style=&quot;font-size: 16px&quot;&gt;1.第三次握手&lt;br&gt;没有发出&lt;/font&gt;" style="text;html=1;strokeColor=none;fillColor=none;align=center;verticalAlign=middle;whiteSpace=wrap;rounded=0;fontSize=20;rotation=0;" vertex="1" parent="1">
          <mxGeometry x="1005" y="1033" width="149" height="32" as="geometry" />
        </mxCell>
        <mxCell id="_vr0naVQsVy4s_z6ZWFj-31" value="&lt;font style=&quot;font-size: 16px&quot;&gt;2.FIN-WAIT-2 &lt;br&gt;死等第三次挥手&lt;/font&gt;" style="text;html=1;strokeColor=none;fillColor=none;align=center;verticalAlign=middle;whiteSpace=wrap;rounded=0;fontSize=20;rotation=0;" vertex="1" parent="1">
          <mxGeometry x="598.27" y="994" width="185" height="62" as="geometry" />
        </mxCell>
      </root>
    </mxGraphModel>
  </diagram>
</mxfile>
